<mxfile host="app.diagrams.net" modified="2023-05-12T21:36:31.808Z" agent="Mozilla/5.0 (Windows NT 10.0; Win64; x64) AppleWebKit/537.36 (KHTML, like Gecko) Chrome/113.0.0.0 Safari/537.36" etag="WqThI-60wPuawhK5LwsP" version="21.2.8" type="github">
  <diagram name="Page-1" id="6hwe_2CjjxkDdxUO9cw7">
    <mxGraphModel dx="1194" dy="810" grid="1" gridSize="10" guides="1" tooltips="1" connect="1" arrows="1" fold="1" page="1" pageScale="1" pageWidth="980" pageHeight="1390" math="0" shadow="0">
      <root>
        <mxCell id="0" />
        <mxCell id="1" parent="0" />
        <mxCell id="Hdfueh6t8Nig7_U-XneJ-11" style="edgeStyle=orthogonalEdgeStyle;rounded=0;orthogonalLoop=1;jettySize=auto;html=1;" edge="1" parent="1" source="Hdfueh6t8Nig7_U-XneJ-1" target="Hdfueh6t8Nig7_U-XneJ-7">
          <mxGeometry relative="1" as="geometry" />
        </mxCell>
        <mxCell id="Hdfueh6t8Nig7_U-XneJ-1" value="&lt;h3&gt;&lt;font face=&quot;Times New Roman&quot;&gt;Program&lt;/font&gt;&lt;/h3&gt;" style="ellipse;whiteSpace=wrap;html=1;fillColor=#60a917;fontColor=#ffffff;strokeColor=#2D7600;fillStyle=zigzag-line;" vertex="1" parent="1">
          <mxGeometry x="420" y="30" width="250" height="150" as="geometry" />
        </mxCell>
        <mxCell id="Hdfueh6t8Nig7_U-XneJ-12" style="edgeStyle=orthogonalEdgeStyle;rounded=1;orthogonalLoop=1;jettySize=auto;html=1;fillColor=#008a00;strokeColor=#005700;strokeWidth=2;" edge="1" parent="1" source="Hdfueh6t8Nig7_U-XneJ-7" target="Hdfueh6t8Nig7_U-XneJ-10">
          <mxGeometry relative="1" as="geometry">
            <Array as="points">
              <mxPoint x="690" y="415" />
              <mxPoint x="690" y="415" />
            </Array>
          </mxGeometry>
        </mxCell>
        <mxCell id="Hdfueh6t8Nig7_U-XneJ-13" value="&lt;h6&gt;&lt;i&gt;&lt;font face=&quot;Tahoma&quot;&gt;Open AI API&lt;/font&gt;&lt;/i&gt;&lt;/h6&gt;" style="edgeLabel;html=1;align=center;verticalAlign=middle;resizable=0;points=[];" vertex="1" connectable="0" parent="Hdfueh6t8Nig7_U-XneJ-12">
          <mxGeometry x="0.1909" relative="1" as="geometry">
            <mxPoint x="-27" y="-25" as="offset" />
          </mxGeometry>
        </mxCell>
        <mxCell id="Hdfueh6t8Nig7_U-XneJ-7" value="&lt;font face=&quot;Lucida Console&quot; style=&quot;font-size: 21px;&quot;&gt;Input&lt;/font&gt;" style="rounded=0;whiteSpace=wrap;html=1;opacity=90;fillColor=#33FFFF;strokeColor=#36393d;" vertex="1" parent="1">
          <mxGeometry x="460" y="360" width="170" height="100" as="geometry" />
        </mxCell>
        <mxCell id="Hdfueh6t8Nig7_U-XneJ-15" value="" style="edgeStyle=orthogonalEdgeStyle;rounded=0;orthogonalLoop=1;jettySize=auto;html=1;strokeWidth=2;fillColor=#0050ef;strokeColor=#001DBC;" edge="1" parent="1" source="Hdfueh6t8Nig7_U-XneJ-10">
          <mxGeometry relative="1" as="geometry">
            <mxPoint x="1230" y="415" as="targetPoint" />
          </mxGeometry>
        </mxCell>
        <mxCell id="Hdfueh6t8Nig7_U-XneJ-35" style="edgeStyle=orthogonalEdgeStyle;rounded=0;orthogonalLoop=1;jettySize=auto;html=1;fillColor=#60a917;strokeColor=#2D7600;strokeWidth=2;" edge="1" parent="1" target="Hdfueh6t8Nig7_U-XneJ-10">
          <mxGeometry relative="1" as="geometry">
            <mxPoint x="730" y="645" as="sourcePoint" />
            <Array as="points">
              <mxPoint x="850" y="470" />
            </Array>
          </mxGeometry>
        </mxCell>
        <mxCell id="Hdfueh6t8Nig7_U-XneJ-38" value="&lt;font style=&quot;font-size: 13px;&quot; face=&quot;Tahoma&quot;&gt;NEXT recomendation&lt;/font&gt;" style="edgeStyle=orthogonalEdgeStyle;rounded=0;orthogonalLoop=1;jettySize=auto;html=1;fillColor=#a20025;strokeColor=#6F0000;strokeWidth=2;" edge="1" parent="1" source="Hdfueh6t8Nig7_U-XneJ-39" target="Hdfueh6t8Nig7_U-XneJ-10">
          <mxGeometry x="-0.4286" y="-70" relative="1" as="geometry">
            <mxPoint x="960" y="675" as="sourcePoint" />
            <Array as="points">
              <mxPoint x="960" y="560" />
              <mxPoint x="960" y="560" />
            </Array>
            <mxPoint as="offset" />
          </mxGeometry>
        </mxCell>
        <mxCell id="Hdfueh6t8Nig7_U-XneJ-10" value="&lt;font face=&quot;Georgia&quot; style=&quot;font-size: 18px;&quot;&gt;Chat-GPT-3.5 turbo&lt;/font&gt;" style="rounded=1;whiteSpace=wrap;html=1;fillColor=#422272;strokeColor=default;gradientColor=none;fillStyle=dots;" vertex="1" parent="1">
          <mxGeometry x="860" y="360" width="240" height="110" as="geometry" />
        </mxCell>
        <mxCell id="Hdfueh6t8Nig7_U-XneJ-21" value="&lt;font style=&quot;font-size: 13px;&quot; face=&quot;Tahoma&quot;&gt;Premium&lt;/font&gt;" style="edgeStyle=orthogonalEdgeStyle;rounded=0;orthogonalLoop=1;jettySize=auto;html=1;entryX=0;entryY=0.5;entryDx=0;entryDy=0;fillColor=#e3c800;strokeColor=#B09500;strokeWidth=2;" edge="1" parent="1" source="Hdfueh6t8Nig7_U-XneJ-19" target="Hdfueh6t8Nig7_U-XneJ-22">
          <mxGeometry y="15" relative="1" as="geometry">
            <mxPoint x="1610" y="415" as="targetPoint" />
            <mxPoint as="offset" />
          </mxGeometry>
        </mxCell>
        <mxCell id="Hdfueh6t8Nig7_U-XneJ-29" value="&lt;font face=&quot;Tahoma&quot; style=&quot;font-size: 13px;&quot;&gt;Google API&lt;/font&gt;" style="edgeStyle=orthogonalEdgeStyle;rounded=1;orthogonalLoop=1;jettySize=auto;html=1;fillColor=#0050ef;strokeColor=#001DBC;strokeWidth=2;" edge="1" parent="1" source="Hdfueh6t8Nig7_U-XneJ-19" target="Hdfueh6t8Nig7_U-XneJ-28">
          <mxGeometry x="-0.25" y="40" relative="1" as="geometry">
            <mxPoint as="offset" />
          </mxGeometry>
        </mxCell>
        <mxCell id="Hdfueh6t8Nig7_U-XneJ-19" value="&lt;font face=&quot;Georgia&quot; style=&quot;font-size: 18px;&quot;&gt;Data extraction&lt;/font&gt;" style="rounded=1;whiteSpace=wrap;html=1;fillColor=#0395d3;strokeColor=none;fillStyle=hatch;" vertex="1" parent="1">
          <mxGeometry x="1230" y="360" width="240" height="110" as="geometry" />
        </mxCell>
        <mxCell id="Hdfueh6t8Nig7_U-XneJ-24" style="edgeStyle=orthogonalEdgeStyle;rounded=0;orthogonalLoop=1;jettySize=auto;html=1;exitX=0.5;exitY=1;exitDx=0;exitDy=0;exitPerimeter=0;" edge="1" parent="1" source="Hdfueh6t8Nig7_U-XneJ-10" target="Hdfueh6t8Nig7_U-XneJ-22">
          <mxGeometry relative="1" as="geometry">
            <mxPoint x="980" y="480" as="sourcePoint" />
            <Array as="points">
              <mxPoint x="980" y="560" />
              <mxPoint x="1770" y="560" />
              <mxPoint x="1770" y="470" />
            </Array>
          </mxGeometry>
        </mxCell>
        <mxCell id="Hdfueh6t8Nig7_U-XneJ-22" value="&lt;font face=&quot;Georgia&quot; style=&quot;font-size: 18px;&quot;&gt;Choose Mood (feature)&lt;/font&gt;" style="rounded=1;whiteSpace=wrap;html=1;fillColor=#5a03c4;fillStyle=hatch;" vertex="1" parent="1">
          <mxGeometry x="1650" y="360" width="240" height="110" as="geometry" />
        </mxCell>
        <mxCell id="Hdfueh6t8Nig7_U-XneJ-27" style="edgeStyle=orthogonalEdgeStyle;rounded=0;orthogonalLoop=1;jettySize=auto;html=1;exitX=0.5;exitY=1;exitDx=0;exitDy=0;exitPerimeter=0;fillColor=#e3c800;strokeColor=#B09500;strokeWidth=2;" edge="1" parent="1">
          <mxGeometry relative="1" as="geometry">
            <mxPoint x="1770" y="470" as="sourcePoint" />
            <mxPoint x="980" y="470" as="targetPoint" />
            <Array as="points">
              <mxPoint x="1770" y="470" />
              <mxPoint x="1770" y="560" />
              <mxPoint x="980" y="560" />
            </Array>
          </mxGeometry>
        </mxCell>
        <mxCell id="Hdfueh6t8Nig7_U-XneJ-31" value="&lt;font style=&quot;font-size: 13px;&quot; face=&quot;Tahoma&quot;&gt;Prefered by user&lt;/font&gt;" style="edgeStyle=orthogonalEdgeStyle;rounded=0;orthogonalLoop=1;jettySize=auto;html=1;entryX=0.5;entryY=0;entryDx=0;entryDy=0;fillColor=#60a917;strokeColor=#2D7600;strokeWidth=2;" edge="1" parent="1" source="Hdfueh6t8Nig7_U-XneJ-28" target="Hdfueh6t8Nig7_U-XneJ-33">
          <mxGeometry y="50" relative="1" as="geometry">
            <mxPoint x="1350" y="850" as="targetPoint" />
            <mxPoint as="offset" />
          </mxGeometry>
        </mxCell>
        <mxCell id="Hdfueh6t8Nig7_U-XneJ-41" value="&lt;font face=&quot;Tahoma&quot; style=&quot;font-size: 13px;&quot;&gt;Not prefered&lt;/font&gt;" style="edgeStyle=orthogonalEdgeStyle;rounded=0;orthogonalLoop=1;jettySize=auto;html=1;entryX=0.595;entryY=-0.05;entryDx=0;entryDy=0;entryPerimeter=0;fillColor=#a20025;strokeColor=#6F0000;strokeWidth=2;" edge="1" parent="1" source="Hdfueh6t8Nig7_U-XneJ-28" target="Hdfueh6t8Nig7_U-XneJ-42">
          <mxGeometry x="0.378" y="40" relative="1" as="geometry">
            <mxPoint x="1120" y="865" as="targetPoint" />
            <Array as="points">
              <mxPoint x="1120" y="685" />
            </Array>
            <mxPoint as="offset" />
          </mxGeometry>
        </mxCell>
        <mxCell id="Hdfueh6t8Nig7_U-XneJ-28" value="&lt;font style=&quot;font-size: 18px;&quot; face=&quot;Georgia&quot;&gt;YouTube API&lt;/font&gt;" style="rounded=1;whiteSpace=wrap;html=1;fillColor=#422272;fillStyle=dots;" vertex="1" parent="1">
          <mxGeometry x="1230" y="630" width="240" height="110" as="geometry" />
        </mxCell>
        <mxCell id="Hdfueh6t8Nig7_U-XneJ-46" style="edgeStyle=orthogonalEdgeStyle;rounded=0;orthogonalLoop=1;jettySize=auto;html=1;entryX=0.5;entryY=1;entryDx=0;entryDy=0;entryPerimeter=0;fillColor=#60a917;strokeColor=#2D7600;strokeWidth=2;" edge="1" parent="1" source="Hdfueh6t8Nig7_U-XneJ-33" target="Hdfueh6t8Nig7_U-XneJ-36">
          <mxGeometry relative="1" as="geometry">
            <mxPoint x="550" y="990" as="targetPoint" />
            <Array as="points">
              <mxPoint x="1350" y="1040" />
              <mxPoint x="675" y="1040" />
            </Array>
          </mxGeometry>
        </mxCell>
        <mxCell id="Hdfueh6t8Nig7_U-XneJ-33" value="&lt;font style=&quot;font-size: 21px;&quot; face=&quot;Lucida Console&quot;&gt;Output&lt;/font&gt;" style="rounded=0;whiteSpace=wrap;html=1;fillStyle=zigzag-line;fillColor=#808080;strokeColor=none;" vertex="1" parent="1">
          <mxGeometry x="1257.5" y="890" width="185" height="60" as="geometry" />
        </mxCell>
        <mxCell id="Hdfueh6t8Nig7_U-XneJ-36" value="&lt;font face=&quot;Georgia&quot; style=&quot;font-size: 16px;&quot;&gt;History&amp;nbsp;&lt;br&gt;DATABASE&lt;/font&gt;" style="shape=cylinder3;whiteSpace=wrap;html=1;boundedLbl=1;backgroundOutline=1;size=15;fillColor=#f8cecc;strokeColor=#b85450;fillStyle=dashed;" vertex="1" parent="1">
          <mxGeometry x="620" y="580" width="110" height="130" as="geometry" />
        </mxCell>
        <mxCell id="Hdfueh6t8Nig7_U-XneJ-39" value="&lt;font style=&quot;font-size: 16px;&quot; face=&quot;Georgia&quot;&gt;AI previous message&lt;/font&gt;" style="shape=cylinder3;whiteSpace=wrap;html=1;boundedLbl=1;backgroundOutline=1;size=15;fillStyle=dashed;fillColor=#3caf49;" vertex="1" parent="1">
          <mxGeometry x="900" y="680" width="110" height="140" as="geometry" />
        </mxCell>
        <mxCell id="Hdfueh6t8Nig7_U-XneJ-44" style="edgeStyle=orthogonalEdgeStyle;rounded=0;orthogonalLoop=1;jettySize=auto;html=1;entryX=0.5;entryY=1;entryDx=0;entryDy=0;entryPerimeter=0;fillColor=#a20025;strokeColor=#6F0000;strokeWidth=2;" edge="1" parent="1" source="Hdfueh6t8Nig7_U-XneJ-42" target="Hdfueh6t8Nig7_U-XneJ-39">
          <mxGeometry relative="1" as="geometry">
            <mxPoint x="960.5" y="860" as="targetPoint" />
            <Array as="points">
              <mxPoint x="955" y="920" />
            </Array>
          </mxGeometry>
        </mxCell>
        <mxCell id="Hdfueh6t8Nig7_U-XneJ-42" value="&lt;font face=&quot;Lucida Console&quot; style=&quot;font-size: 21px;&quot;&gt;Output&lt;/font&gt;" style="rounded=0;whiteSpace=wrap;html=1;fillStyle=zigzag-line;fillColor=#808080;strokeColor=none;" vertex="1" parent="1">
          <mxGeometry x="1010" y="890" width="185" height="60" as="geometry" />
        </mxCell>
      </root>
    </mxGraphModel>
  </diagram>
</mxfile>
